<mxfile host="app.diagrams.net" modified="2023-08-04T23:39:02.825Z" agent="Mozilla/5.0 (Windows NT 10.0; Win64; x64) AppleWebKit/537.36 (KHTML, like Gecko) Chrome/115.0.0.0 Safari/537.36" etag="swaOJtbERPpUrhXBloQf" version="21.6.6" type="github">
  <diagram id="C5RBs43oDa-KdzZeNtuy" name="Page-1">
    <mxGraphModel dx="1434" dy="796" grid="1" gridSize="10" guides="1" tooltips="1" connect="1" arrows="1" fold="1" page="1" pageScale="1" pageWidth="827" pageHeight="1169" math="0" shadow="0">
      <root>
        <mxCell id="WIyWlLk6GJQsqaUBKTNV-0" />
        <mxCell id="WIyWlLk6GJQsqaUBKTNV-1" parent="WIyWlLk6GJQsqaUBKTNV-0" />
        <mxCell id="VacP4awi9Vv4iFsRDd4a-47" style="edgeStyle=orthogonalEdgeStyle;rounded=0;orthogonalLoop=1;jettySize=auto;html=1;" edge="1" parent="WIyWlLk6GJQsqaUBKTNV-1" source="VacP4awi9Vv4iFsRDd4a-0" target="VacP4awi9Vv4iFsRDd4a-2">
          <mxGeometry relative="1" as="geometry" />
        </mxCell>
        <mxCell id="VacP4awi9Vv4iFsRDd4a-0" value="inicio" style="strokeWidth=2;html=1;shape=mxgraph.flowchart.terminator;whiteSpace=wrap;" vertex="1" parent="WIyWlLk6GJQsqaUBKTNV-1">
          <mxGeometry x="120" y="20" width="150" height="60" as="geometry" />
        </mxCell>
        <mxCell id="VacP4awi9Vv4iFsRDd4a-6" style="edgeStyle=orthogonalEdgeStyle;rounded=0;orthogonalLoop=1;jettySize=auto;html=1;entryX=0.5;entryY=0;entryDx=0;entryDy=0;entryPerimeter=0;" edge="1" parent="WIyWlLk6GJQsqaUBKTNV-1" source="VacP4awi9Vv4iFsRDd4a-2" target="VacP4awi9Vv4iFsRDd4a-3">
          <mxGeometry relative="1" as="geometry" />
        </mxCell>
        <mxCell id="VacP4awi9Vv4iFsRDd4a-2" value="n1" style="html=1;strokeWidth=2;shape=manualInput;whiteSpace=wrap;rounded=1;size=26;arcSize=11;" vertex="1" parent="WIyWlLk6GJQsqaUBKTNV-1">
          <mxGeometry x="145" y="140" width="100" height="60" as="geometry" />
        </mxCell>
        <mxCell id="VacP4awi9Vv4iFsRDd4a-8" style="edgeStyle=orthogonalEdgeStyle;rounded=0;orthogonalLoop=1;jettySize=auto;html=1;entryX=0.5;entryY=0;entryDx=0;entryDy=0;entryPerimeter=0;" edge="1" parent="WIyWlLk6GJQsqaUBKTNV-1" source="VacP4awi9Vv4iFsRDd4a-3" target="VacP4awi9Vv4iFsRDd4a-4">
          <mxGeometry relative="1" as="geometry" />
        </mxCell>
        <mxCell id="VacP4awi9Vv4iFsRDd4a-14" style="edgeStyle=orthogonalEdgeStyle;rounded=0;orthogonalLoop=1;jettySize=auto;html=1;" edge="1" parent="WIyWlLk6GJQsqaUBKTNV-1" source="VacP4awi9Vv4iFsRDd4a-3" target="VacP4awi9Vv4iFsRDd4a-10">
          <mxGeometry relative="1" as="geometry" />
        </mxCell>
        <mxCell id="VacP4awi9Vv4iFsRDd4a-3" value="n1&amp;gt;=0" style="strokeWidth=2;html=1;shape=mxgraph.flowchart.decision;whiteSpace=wrap;" vertex="1" parent="WIyWlLk6GJQsqaUBKTNV-1">
          <mxGeometry x="145" y="270" width="100" height="100" as="geometry" />
        </mxCell>
        <mxCell id="VacP4awi9Vv4iFsRDd4a-12" style="edgeStyle=orthogonalEdgeStyle;rounded=0;orthogonalLoop=1;jettySize=auto;html=1;" edge="1" parent="WIyWlLk6GJQsqaUBKTNV-1" source="VacP4awi9Vv4iFsRDd4a-4" target="VacP4awi9Vv4iFsRDd4a-10">
          <mxGeometry relative="1" as="geometry" />
        </mxCell>
        <mxCell id="VacP4awi9Vv4iFsRDd4a-42" style="edgeStyle=orthogonalEdgeStyle;rounded=0;orthogonalLoop=1;jettySize=auto;html=1;entryX=0.5;entryY=1;entryDx=0;entryDy=0;entryPerimeter=0;" edge="1" parent="WIyWlLk6GJQsqaUBKTNV-1" source="VacP4awi9Vv4iFsRDd4a-4" target="VacP4awi9Vv4iFsRDd4a-38">
          <mxGeometry relative="1" as="geometry" />
        </mxCell>
        <mxCell id="VacP4awi9Vv4iFsRDd4a-4" value="n1&amp;lt;=10" style="strokeWidth=2;html=1;shape=mxgraph.flowchart.decision;whiteSpace=wrap;" vertex="1" parent="WIyWlLk6GJQsqaUBKTNV-1">
          <mxGeometry x="145" y="430" width="100" height="100" as="geometry" />
        </mxCell>
        <mxCell id="VacP4awi9Vv4iFsRDd4a-48" style="edgeStyle=orthogonalEdgeStyle;rounded=0;orthogonalLoop=1;jettySize=auto;html=1;entryX=0;entryY=0.75;entryDx=0;entryDy=0;" edge="1" parent="WIyWlLk6GJQsqaUBKTNV-1" source="VacP4awi9Vv4iFsRDd4a-10" target="VacP4awi9Vv4iFsRDd4a-2">
          <mxGeometry relative="1" as="geometry">
            <Array as="points">
              <mxPoint x="35" y="185" />
            </Array>
          </mxGeometry>
        </mxCell>
        <mxCell id="VacP4awi9Vv4iFsRDd4a-10" value="" style="verticalLabelPosition=bottom;verticalAlign=top;html=1;shape=mxgraph.flowchart.on-page_reference;" vertex="1" parent="WIyWlLk6GJQsqaUBKTNV-1">
          <mxGeometry x="20" y="305" width="30" height="30" as="geometry" />
        </mxCell>
        <mxCell id="VacP4awi9Vv4iFsRDd4a-30" style="edgeStyle=orthogonalEdgeStyle;rounded=0;orthogonalLoop=1;jettySize=auto;html=1;entryX=0.5;entryY=0;entryDx=0;entryDy=0;entryPerimeter=0;" edge="1" parent="WIyWlLk6GJQsqaUBKTNV-1" source="VacP4awi9Vv4iFsRDd4a-23" target="VacP4awi9Vv4iFsRDd4a-24">
          <mxGeometry relative="1" as="geometry" />
        </mxCell>
        <mxCell id="VacP4awi9Vv4iFsRDd4a-23" value="n2" style="html=1;strokeWidth=2;shape=manualInput;whiteSpace=wrap;rounded=1;size=26;arcSize=11;" vertex="1" parent="WIyWlLk6GJQsqaUBKTNV-1">
          <mxGeometry x="410" y="20" width="100" height="60" as="geometry" />
        </mxCell>
        <mxCell id="VacP4awi9Vv4iFsRDd4a-31" style="edgeStyle=orthogonalEdgeStyle;rounded=0;orthogonalLoop=1;jettySize=auto;html=1;entryX=0.5;entryY=0;entryDx=0;entryDy=0;entryPerimeter=0;" edge="1" parent="WIyWlLk6GJQsqaUBKTNV-1" source="VacP4awi9Vv4iFsRDd4a-24" target="VacP4awi9Vv4iFsRDd4a-25">
          <mxGeometry relative="1" as="geometry" />
        </mxCell>
        <mxCell id="VacP4awi9Vv4iFsRDd4a-41" style="edgeStyle=orthogonalEdgeStyle;rounded=0;orthogonalLoop=1;jettySize=auto;html=1;entryX=1;entryY=0.5;entryDx=0;entryDy=0;entryPerimeter=0;" edge="1" parent="WIyWlLk6GJQsqaUBKTNV-1" source="VacP4awi9Vv4iFsRDd4a-24" target="VacP4awi9Vv4iFsRDd4a-39">
          <mxGeometry relative="1" as="geometry" />
        </mxCell>
        <mxCell id="VacP4awi9Vv4iFsRDd4a-24" value="n2&amp;gt;=0" style="strokeWidth=2;html=1;shape=mxgraph.flowchart.decision;whiteSpace=wrap;" vertex="1" parent="WIyWlLk6GJQsqaUBKTNV-1">
          <mxGeometry x="410" y="130" width="100" height="100" as="geometry" />
        </mxCell>
        <mxCell id="VacP4awi9Vv4iFsRDd4a-32" style="edgeStyle=orthogonalEdgeStyle;rounded=0;orthogonalLoop=1;jettySize=auto;html=1;entryX=0.46;entryY=0.15;entryDx=0;entryDy=0;entryPerimeter=0;" edge="1" parent="WIyWlLk6GJQsqaUBKTNV-1" source="VacP4awi9Vv4iFsRDd4a-25" target="VacP4awi9Vv4iFsRDd4a-27">
          <mxGeometry relative="1" as="geometry" />
        </mxCell>
        <mxCell id="VacP4awi9Vv4iFsRDd4a-40" style="edgeStyle=orthogonalEdgeStyle;rounded=0;orthogonalLoop=1;jettySize=auto;html=1;entryX=1;entryY=0.5;entryDx=0;entryDy=0;entryPerimeter=0;" edge="1" parent="WIyWlLk6GJQsqaUBKTNV-1" source="VacP4awi9Vv4iFsRDd4a-25" target="VacP4awi9Vv4iFsRDd4a-38">
          <mxGeometry relative="1" as="geometry" />
        </mxCell>
        <mxCell id="VacP4awi9Vv4iFsRDd4a-25" value="n2&amp;lt;=10" style="strokeWidth=2;html=1;shape=mxgraph.flowchart.decision;whiteSpace=wrap;" vertex="1" parent="WIyWlLk6GJQsqaUBKTNV-1">
          <mxGeometry x="410" y="260" width="100" height="100" as="geometry" />
        </mxCell>
        <mxCell id="VacP4awi9Vv4iFsRDd4a-33" style="edgeStyle=orthogonalEdgeStyle;rounded=0;orthogonalLoop=1;jettySize=auto;html=1;entryX=0.5;entryY=0;entryDx=0;entryDy=0;entryPerimeter=0;" edge="1" parent="WIyWlLk6GJQsqaUBKTNV-1" source="VacP4awi9Vv4iFsRDd4a-27" target="VacP4awi9Vv4iFsRDd4a-28">
          <mxGeometry relative="1" as="geometry" />
        </mxCell>
        <mxCell id="VacP4awi9Vv4iFsRDd4a-27" value="n3" style="html=1;strokeWidth=2;shape=manualInput;whiteSpace=wrap;rounded=1;size=26;arcSize=11;" vertex="1" parent="WIyWlLk6GJQsqaUBKTNV-1">
          <mxGeometry x="414" y="410" width="100" height="60" as="geometry" />
        </mxCell>
        <mxCell id="VacP4awi9Vv4iFsRDd4a-50" style="edgeStyle=orthogonalEdgeStyle;rounded=0;orthogonalLoop=1;jettySize=auto;html=1;entryX=0.5;entryY=0;entryDx=0;entryDy=0;entryPerimeter=0;" edge="1" parent="WIyWlLk6GJQsqaUBKTNV-1" source="VacP4awi9Vv4iFsRDd4a-28" target="VacP4awi9Vv4iFsRDd4a-49">
          <mxGeometry relative="1" as="geometry" />
        </mxCell>
        <mxCell id="VacP4awi9Vv4iFsRDd4a-53" style="edgeStyle=orthogonalEdgeStyle;rounded=0;orthogonalLoop=1;jettySize=auto;html=1;entryX=0;entryY=0.5;entryDx=0;entryDy=0;entryPerimeter=0;" edge="1" parent="WIyWlLk6GJQsqaUBKTNV-1" source="VacP4awi9Vv4iFsRDd4a-28" target="VacP4awi9Vv4iFsRDd4a-52">
          <mxGeometry relative="1" as="geometry" />
        </mxCell>
        <mxCell id="VacP4awi9Vv4iFsRDd4a-28" value="n3&amp;gt;=0" style="strokeWidth=2;html=1;shape=mxgraph.flowchart.decision;whiteSpace=wrap;" vertex="1" parent="WIyWlLk6GJQsqaUBKTNV-1">
          <mxGeometry x="414" y="510" width="100" height="100" as="geometry" />
        </mxCell>
        <mxCell id="VacP4awi9Vv4iFsRDd4a-43" style="edgeStyle=orthogonalEdgeStyle;rounded=0;orthogonalLoop=1;jettySize=auto;html=1;entryX=0.5;entryY=1;entryDx=0;entryDy=0;entryPerimeter=0;" edge="1" parent="WIyWlLk6GJQsqaUBKTNV-1" source="VacP4awi9Vv4iFsRDd4a-38" target="VacP4awi9Vv4iFsRDd4a-39">
          <mxGeometry relative="1" as="geometry" />
        </mxCell>
        <mxCell id="VacP4awi9Vv4iFsRDd4a-38" value="" style="verticalLabelPosition=bottom;verticalAlign=top;html=1;shape=mxgraph.flowchart.on-page_reference;" vertex="1" parent="WIyWlLk6GJQsqaUBKTNV-1">
          <mxGeometry x="300" y="295" width="30" height="30" as="geometry" />
        </mxCell>
        <mxCell id="VacP4awi9Vv4iFsRDd4a-46" style="edgeStyle=orthogonalEdgeStyle;rounded=0;orthogonalLoop=1;jettySize=auto;html=1;entryX=0;entryY=0.75;entryDx=0;entryDy=0;" edge="1" parent="WIyWlLk6GJQsqaUBKTNV-1" source="VacP4awi9Vv4iFsRDd4a-39" target="VacP4awi9Vv4iFsRDd4a-23">
          <mxGeometry relative="1" as="geometry">
            <Array as="points">
              <mxPoint x="315" y="65" />
            </Array>
          </mxGeometry>
        </mxCell>
        <mxCell id="VacP4awi9Vv4iFsRDd4a-39" value="" style="verticalLabelPosition=bottom;verticalAlign=top;html=1;shape=mxgraph.flowchart.on-page_reference;" vertex="1" parent="WIyWlLk6GJQsqaUBKTNV-1">
          <mxGeometry x="300" y="165" width="30" height="30" as="geometry" />
        </mxCell>
        <mxCell id="VacP4awi9Vv4iFsRDd4a-51" style="edgeStyle=orthogonalEdgeStyle;rounded=0;orthogonalLoop=1;jettySize=auto;html=1;entryX=0;entryY=0.617;entryDx=0;entryDy=0;entryPerimeter=0;" edge="1" parent="WIyWlLk6GJQsqaUBKTNV-1" source="VacP4awi9Vv4iFsRDd4a-49" target="VacP4awi9Vv4iFsRDd4a-27">
          <mxGeometry relative="1" as="geometry">
            <Array as="points">
              <mxPoint x="394" y="675" />
              <mxPoint x="394" y="447" />
            </Array>
          </mxGeometry>
        </mxCell>
        <mxCell id="VacP4awi9Vv4iFsRDd4a-49" value="" style="verticalLabelPosition=bottom;verticalAlign=top;html=1;shape=mxgraph.flowchart.on-page_reference;" vertex="1" parent="WIyWlLk6GJQsqaUBKTNV-1">
          <mxGeometry x="449" y="660" width="30" height="30" as="geometry" />
        </mxCell>
        <mxCell id="VacP4awi9Vv4iFsRDd4a-55" style="edgeStyle=orthogonalEdgeStyle;rounded=0;orthogonalLoop=1;jettySize=auto;html=1;entryX=1;entryY=0.5;entryDx=0;entryDy=0;entryPerimeter=0;" edge="1" parent="WIyWlLk6GJQsqaUBKTNV-1" source="VacP4awi9Vv4iFsRDd4a-52" target="VacP4awi9Vv4iFsRDd4a-49">
          <mxGeometry relative="1" as="geometry">
            <Array as="points">
              <mxPoint x="620" y="675" />
            </Array>
          </mxGeometry>
        </mxCell>
        <mxCell id="VacP4awi9Vv4iFsRDd4a-58" style="edgeStyle=orthogonalEdgeStyle;rounded=0;orthogonalLoop=1;jettySize=auto;html=1;entryX=0;entryY=0.5;entryDx=0;entryDy=0;" edge="1" parent="WIyWlLk6GJQsqaUBKTNV-1" source="VacP4awi9Vv4iFsRDd4a-52" target="VacP4awi9Vv4iFsRDd4a-57">
          <mxGeometry relative="1" as="geometry" />
        </mxCell>
        <mxCell id="VacP4awi9Vv4iFsRDd4a-52" value="n3&amp;lt;=10" style="strokeWidth=2;html=1;shape=mxgraph.flowchart.decision;whiteSpace=wrap;" vertex="1" parent="WIyWlLk6GJQsqaUBKTNV-1">
          <mxGeometry x="570" y="510" width="100" height="100" as="geometry" />
        </mxCell>
        <mxCell id="VacP4awi9Vv4iFsRDd4a-72" style="edgeStyle=orthogonalEdgeStyle;rounded=0;orthogonalLoop=1;jettySize=auto;html=1;" edge="1" parent="WIyWlLk6GJQsqaUBKTNV-1" source="VacP4awi9Vv4iFsRDd4a-57">
          <mxGeometry relative="1" as="geometry">
            <mxPoint x="1080" y="520" as="targetPoint" />
          </mxGeometry>
        </mxCell>
        <mxCell id="VacP4awi9Vv4iFsRDd4a-57" value="m=(n1+n2+n3)/3" style="rounded=1;whiteSpace=wrap;html=1;absoluteArcSize=1;arcSize=0;strokeWidth=2;" vertex="1" parent="WIyWlLk6GJQsqaUBKTNV-1">
          <mxGeometry x="730" y="532.5" width="120" height="55" as="geometry" />
        </mxCell>
        <mxCell id="VacP4awi9Vv4iFsRDd4a-73" style="edgeStyle=orthogonalEdgeStyle;rounded=0;orthogonalLoop=1;jettySize=auto;html=1;entryX=1;entryY=0.5;entryDx=0;entryDy=0;entryPerimeter=0;" edge="1" parent="WIyWlLk6GJQsqaUBKTNV-1" source="VacP4awi9Vv4iFsRDd4a-59" target="VacP4awi9Vv4iFsRDd4a-71">
          <mxGeometry relative="1" as="geometry" />
        </mxCell>
        <mxCell id="VacP4awi9Vv4iFsRDd4a-76" style="edgeStyle=orthogonalEdgeStyle;rounded=0;orthogonalLoop=1;jettySize=auto;html=1;entryX=0.5;entryY=1;entryDx=0;entryDy=0;entryPerimeter=0;" edge="1" parent="WIyWlLk6GJQsqaUBKTNV-1" source="VacP4awi9Vv4iFsRDd4a-59" target="VacP4awi9Vv4iFsRDd4a-60">
          <mxGeometry relative="1" as="geometry" />
        </mxCell>
        <mxCell id="VacP4awi9Vv4iFsRDd4a-59" value="m&amp;lt;3" style="strokeWidth=2;html=1;shape=mxgraph.flowchart.decision;whiteSpace=wrap;" vertex="1" parent="WIyWlLk6GJQsqaUBKTNV-1">
          <mxGeometry x="1030" y="415" width="100" height="100" as="geometry" />
        </mxCell>
        <mxCell id="VacP4awi9Vv4iFsRDd4a-65" style="edgeStyle=orthogonalEdgeStyle;rounded=0;orthogonalLoop=1;jettySize=auto;html=1;entryX=0.5;entryY=1;entryDx=0;entryDy=0;entryPerimeter=0;" edge="1" parent="WIyWlLk6GJQsqaUBKTNV-1" source="VacP4awi9Vv4iFsRDd4a-60" target="VacP4awi9Vv4iFsRDd4a-61">
          <mxGeometry relative="1" as="geometry" />
        </mxCell>
        <mxCell id="VacP4awi9Vv4iFsRDd4a-77" style="edgeStyle=orthogonalEdgeStyle;rounded=0;orthogonalLoop=1;jettySize=auto;html=1;entryX=1;entryY=0.5;entryDx=0;entryDy=0;entryPerimeter=0;" edge="1" parent="WIyWlLk6GJQsqaUBKTNV-1" source="VacP4awi9Vv4iFsRDd4a-60" target="VacP4awi9Vv4iFsRDd4a-62">
          <mxGeometry relative="1" as="geometry" />
        </mxCell>
        <mxCell id="VacP4awi9Vv4iFsRDd4a-60" value="m&amp;gt;=7" style="strokeWidth=2;html=1;shape=mxgraph.flowchart.decision;whiteSpace=wrap;" vertex="1" parent="WIyWlLk6GJQsqaUBKTNV-1">
          <mxGeometry x="1030" y="185" width="100" height="100" as="geometry" />
        </mxCell>
        <mxCell id="VacP4awi9Vv4iFsRDd4a-82" style="edgeStyle=orthogonalEdgeStyle;rounded=0;orthogonalLoop=1;jettySize=auto;html=1;entryX=0;entryY=0.75;entryDx=0;entryDy=0;" edge="1" parent="WIyWlLk6GJQsqaUBKTNV-1" source="VacP4awi9Vv4iFsRDd4a-61" target="VacP4awi9Vv4iFsRDd4a-78">
          <mxGeometry relative="1" as="geometry" />
        </mxCell>
        <mxCell id="VacP4awi9Vv4iFsRDd4a-61" value="Exame" style="strokeWidth=2;html=1;shape=mxgraph.flowchart.display;whiteSpace=wrap;" vertex="1" parent="WIyWlLk6GJQsqaUBKTNV-1">
          <mxGeometry x="1030" y="65" width="100" height="60" as="geometry" />
        </mxCell>
        <mxCell id="VacP4awi9Vv4iFsRDd4a-75" style="edgeStyle=orthogonalEdgeStyle;rounded=0;orthogonalLoop=1;jettySize=auto;html=1;entryX=1;entryY=0.5;entryDx=0;entryDy=0;entryPerimeter=0;" edge="1" parent="WIyWlLk6GJQsqaUBKTNV-1" source="VacP4awi9Vv4iFsRDd4a-62" target="VacP4awi9Vv4iFsRDd4a-67">
          <mxGeometry relative="1" as="geometry" />
        </mxCell>
        <mxCell id="VacP4awi9Vv4iFsRDd4a-62" value="Aprovado" style="strokeWidth=2;html=1;shape=mxgraph.flowchart.display;whiteSpace=wrap;" vertex="1" parent="WIyWlLk6GJQsqaUBKTNV-1">
          <mxGeometry x="790" y="205" width="100" height="60" as="geometry" />
        </mxCell>
        <mxCell id="VacP4awi9Vv4iFsRDd4a-70" style="edgeStyle=orthogonalEdgeStyle;rounded=0;orthogonalLoop=1;jettySize=auto;html=1;entryX=0.5;entryY=1;entryDx=0;entryDy=0;entryPerimeter=0;" edge="1" parent="WIyWlLk6GJQsqaUBKTNV-1" source="VacP4awi9Vv4iFsRDd4a-67" target="VacP4awi9Vv4iFsRDd4a-69">
          <mxGeometry relative="1" as="geometry" />
        </mxCell>
        <mxCell id="VacP4awi9Vv4iFsRDd4a-67" value="" style="verticalLabelPosition=bottom;verticalAlign=top;html=1;shape=mxgraph.flowchart.on-page_reference;" vertex="1" parent="WIyWlLk6GJQsqaUBKTNV-1">
          <mxGeometry x="680" y="220" width="30" height="30" as="geometry" />
        </mxCell>
        <mxCell id="VacP4awi9Vv4iFsRDd4a-69" value="Fim" style="strokeWidth=2;html=1;shape=mxgraph.flowchart.terminator;whiteSpace=wrap;" vertex="1" parent="WIyWlLk6GJQsqaUBKTNV-1">
          <mxGeometry x="620" y="70" width="150" height="60" as="geometry" />
        </mxCell>
        <mxCell id="VacP4awi9Vv4iFsRDd4a-74" style="edgeStyle=orthogonalEdgeStyle;rounded=0;orthogonalLoop=1;jettySize=auto;html=1;entryX=0.5;entryY=1;entryDx=0;entryDy=0;entryPerimeter=0;" edge="1" parent="WIyWlLk6GJQsqaUBKTNV-1" source="VacP4awi9Vv4iFsRDd4a-71" target="VacP4awi9Vv4iFsRDd4a-67">
          <mxGeometry relative="1" as="geometry" />
        </mxCell>
        <mxCell id="VacP4awi9Vv4iFsRDd4a-71" value="Reprovado" style="strokeWidth=2;html=1;shape=mxgraph.flowchart.display;whiteSpace=wrap;" vertex="1" parent="WIyWlLk6GJQsqaUBKTNV-1">
          <mxGeometry x="750" y="435" width="100" height="60" as="geometry" />
        </mxCell>
        <mxCell id="VacP4awi9Vv4iFsRDd4a-89" style="edgeStyle=orthogonalEdgeStyle;rounded=0;orthogonalLoop=1;jettySize=auto;html=1;entryX=0.5;entryY=0;entryDx=0;entryDy=0;entryPerimeter=0;" edge="1" parent="WIyWlLk6GJQsqaUBKTNV-1" source="VacP4awi9Vv4iFsRDd4a-78" target="VacP4awi9Vv4iFsRDd4a-81">
          <mxGeometry relative="1" as="geometry" />
        </mxCell>
        <mxCell id="VacP4awi9Vv4iFsRDd4a-78" value="E" style="html=1;strokeWidth=2;shape=manualInput;whiteSpace=wrap;rounded=1;size=26;arcSize=11;" vertex="1" parent="WIyWlLk6GJQsqaUBKTNV-1">
          <mxGeometry x="1410" y="50" width="100" height="60" as="geometry" />
        </mxCell>
        <mxCell id="VacP4awi9Vv4iFsRDd4a-88" style="edgeStyle=orthogonalEdgeStyle;rounded=0;orthogonalLoop=1;jettySize=auto;html=1;entryX=1;entryY=0.5;entryDx=0;entryDy=0;entryPerimeter=0;" edge="1" parent="WIyWlLk6GJQsqaUBKTNV-1" source="VacP4awi9Vv4iFsRDd4a-81" target="VacP4awi9Vv4iFsRDd4a-84">
          <mxGeometry relative="1" as="geometry" />
        </mxCell>
        <mxCell id="VacP4awi9Vv4iFsRDd4a-90" style="edgeStyle=orthogonalEdgeStyle;rounded=0;orthogonalLoop=1;jettySize=auto;html=1;entryX=0.5;entryY=0;entryDx=0;entryDy=0;entryPerimeter=0;" edge="1" parent="WIyWlLk6GJQsqaUBKTNV-1" source="VacP4awi9Vv4iFsRDd4a-81" target="VacP4awi9Vv4iFsRDd4a-83">
          <mxGeometry relative="1" as="geometry" />
        </mxCell>
        <mxCell id="VacP4awi9Vv4iFsRDd4a-81" value="E&amp;gt;=0" style="strokeWidth=2;html=1;shape=mxgraph.flowchart.decision;whiteSpace=wrap;" vertex="1" parent="WIyWlLk6GJQsqaUBKTNV-1">
          <mxGeometry x="1410" y="170" width="100" height="100" as="geometry" />
        </mxCell>
        <mxCell id="VacP4awi9Vv4iFsRDd4a-85" style="edgeStyle=orthogonalEdgeStyle;rounded=0;orthogonalLoop=1;jettySize=auto;html=1;entryX=0.5;entryY=1;entryDx=0;entryDy=0;entryPerimeter=0;" edge="1" parent="WIyWlLk6GJQsqaUBKTNV-1" source="VacP4awi9Vv4iFsRDd4a-83" target="VacP4awi9Vv4iFsRDd4a-84">
          <mxGeometry relative="1" as="geometry" />
        </mxCell>
        <mxCell id="VacP4awi9Vv4iFsRDd4a-83" value="E&amp;lt;=10" style="strokeWidth=2;html=1;shape=mxgraph.flowchart.decision;whiteSpace=wrap;" vertex="1" parent="WIyWlLk6GJQsqaUBKTNV-1">
          <mxGeometry x="1410" y="340" width="100" height="100" as="geometry" />
        </mxCell>
        <mxCell id="VacP4awi9Vv4iFsRDd4a-86" style="edgeStyle=orthogonalEdgeStyle;rounded=0;orthogonalLoop=1;jettySize=auto;html=1;entryX=0;entryY=0.75;entryDx=0;entryDy=0;" edge="1" parent="WIyWlLk6GJQsqaUBKTNV-1" source="VacP4awi9Vv4iFsRDd4a-84" target="VacP4awi9Vv4iFsRDd4a-78">
          <mxGeometry relative="1" as="geometry">
            <Array as="points">
              <mxPoint x="1265" y="95" />
            </Array>
          </mxGeometry>
        </mxCell>
        <mxCell id="VacP4awi9Vv4iFsRDd4a-84" value="" style="verticalLabelPosition=bottom;verticalAlign=top;html=1;shape=mxgraph.flowchart.on-page_reference;" vertex="1" parent="WIyWlLk6GJQsqaUBKTNV-1">
          <mxGeometry x="1250" y="205" width="30" height="30" as="geometry" />
        </mxCell>
      </root>
    </mxGraphModel>
  </diagram>
</mxfile>
